<?xml version="1.0" encoding="UTF-8"?>
<svg class="" width="512px" height="512px" enable-background="new 0 0 511.969 511.969" version="1.1" viewBox="0 0 511.97 511.97" xml:space="preserve" xmlns="http://www.w3.org/2000/svg">
  <path class="active-path" d="m510.76 249.88c-2.464-5.984-8.32-9.888-14.784-9.888h-16c0-117.89-91.552-214.78-207.23-223.39-9.12-0.672-16.768 7.008-16.768 16.128v64.32c0 8.384 6.592 14.816 14.912 15.808 63.584 7.392 113.09 61.6 113.09 127.14h-16c-6.464 0-12.32 3.904-14.784 9.888s-1.088 12.864 3.456 17.44l64 64c3.136 3.104 7.232 4.672 11.328 4.672s8.192-1.568 11.328-4.672l64-64c4.544-4.608 5.92-11.456 3.456-17.44z" fill="#2AACDB" data-old_color="#000000" data-original="#000000"/>
  <path class="active-path" d="m219.08 47.447c-2.048-3.52-5.44-6.304-9.728-7.456l-87.424-23.456c-6.24-1.664-12.896 0.576-16.832 5.696-3.968 5.152-4.416 12.16-1.152 17.76l8 13.856c-102.08 58.944-140.22 186.66-89.824 291.17 3.968 8.224 14.432 11.008 22.336 6.464l55.712-32.16c7.264-4.192 9.536-13.12 6.24-20.8-25.376-58.784-3.2-128.74 53.568-161.5l8 13.856c3.2 5.568 9.472 8.672 15.904 7.84 6.432-0.864 11.68-5.472 13.376-11.712l23.424-87.424c1.152-4.256 0.448-8.608-1.6-12.128z" fill="#2AACDB" data-old_color="#000000" data-original="#000000"/>
  <path class="active-path" d="m432.78 375.67-55.712-32.16c-7.264-4.192-16.128-1.728-21.12 5.024-38.208 51.36-109.89 67.136-166.66 34.368l8-13.856c3.232-5.6 2.784-12.608-1.152-17.728s-10.624-7.392-16.864-5.728l-87.424 23.424c-4.256 1.152-7.68 3.904-9.728 7.456s-2.752 7.872-1.6 12.128l23.424 87.424c1.696 6.24 6.944 10.88 13.376 11.712 6.432 0.864 12.704-2.272 15.936-7.872l8-13.856c102.08 58.944 231.78 28.128 297.09-67.776 5.12-7.552 2.304-18.016-5.568-22.56z" fill="#2AACDB" data-old_color="#000000" data-original="#000000"/>
</svg>
