<?xml version="1.0" encoding="UTF-8" standalone="no"?>
<svg width="512px" xmlns="http://www.w3.org/2000/svg" viewBox="0 0 512 512" height="512px">
 <path d="m116 412c-16.543 0-30 13.457-30 30s13.457 30 30 30 30-13.457 30-30-13.457-30-30-30zm0 40c-5.5156 0-10-4.4844-10-10s4.4844-10 10-10 10 4.4844 10 10-4.4844 10-10 10z" fill="#595959"/>
 <path d="m482 412h-16v-216c0-5.5234-4.4766-10-10-10h-50v-136c0-5.5234-4.4766-10-10-10h-200c-5.5234 0-10 4.4766-10 10v362h-6.7461c-6.918-14.637-18.613-26.332-33.254-33.254v-348.75c0-16.543-13.457-30-30-30h-86c-16.543 0-30 13.457-30 30s13.457 30 30 30h56v318.75c-24.188 11.484-40 36.062-40 63.254 0 38.598 31.402 70 70 70 27.191 0 51.77-15.812 63.254-40h302.75c16.543 0 30-13.457 30-30s-13.457-30-30-30zm-36 0h-240v-206h70v106c0 3.7891 2.1406 7.25 5.5273 8.9453s7.4414 1.3281 10.473-0.94531l34-25.5 34 25.5c3.0352 2.2773 7.0898 2.6367 10.473 0.94531 3.3867-1.6953 5.5273-5.1562 5.5273-8.9453v-106h70zm-150-206h60v86l-24-18c-1.7773-1.332-3.8906-2-6-2s-4.2227 0.66797-6 2l-24 18zm-20-146h40v57.312l-14.453-9.6328c-1.6797-1.1211-3.6133-1.6797-5.5469-1.6797s-3.8672 0.55859-5.5469 1.6797l-14.453 9.6328zm-20 0v76c0 3.6875 2.0312 7.0742 5.2812 8.8164 3.2539 1.7422 7.1992 1.5469 10.266-0.49609l24.453-16.301 24.453 16.301c3.0703 2.0469 7.0195 2.2344 10.266 0.49609 3.25-1.7383 5.2812-5.1289 5.2812-8.8164v-76h50v126h-180v-126zm-226-20c-5.5156 0-10-4.4844-10-10s4.4844-10 10-10h86c5.5156 0 10 4.4844 10 10v342.72c-3.2969-0.47266-6.6328-0.72266-10-0.72266s-6.7031 0.25-10 0.72266v-322.72c0-5.5234-4.4766-10-10-10zm86 452c-27.57 0-50-22.43-50-50 0-27.273 22.062-50 50-50 27.93 0 50 22.75 50 50 0 27.938-22.727 50-50 50zm366-40h-296.72c0.47266-3.2969 0.72266-6.6328 0.72266-10s-0.25391-6.7031-0.72266-10h296.72c5.5156 0 10 4.4844 10 10s-4.4844 10-10 10z" fill="#595959"/>
 <path d="m416 392c5.5234 0 10-4.4766 10-10v-20c0-5.5234-4.4766-10-10-10s-10 4.4766-10 10v20c0 5.5234 4.4766 10 10 10z" fill="#595959"/>
 <path d="m416 312c5.5195 0 10 4.4805 10 10s-4.4805 10-10 10-10-4.4805-10-10 4.4805-10 10-10z" fill="#595959"/>
 <path d="m376 352c-5.5234 0-10 4.4766-10 10v20c0 5.5234 4.4766 10 10 10s10-4.4766 10-10v-20c0-5.5234-4.4766-10-10-10z" fill="#595959"/>
</svg>
