<svg xmlns="http://www.w3.org/2000/svg" xmlns:xlink="http://www.w3.org/1999/xlink" width="1048.438" height="980.766" viewBox="0 0 1048.438 980.766"><defs><style>.a{fill:#164050;}.b,.d,.e{fill:#fff;}.b{font-size:221px;font-family:OpenSans-Extrabold, Open Sans;font-weight:800;}.c{fill:#fed308;}.d{font-size:57px;}.d,.e{font-family:Impact;}.e{font-size:56px;}.f{fill:#ffc808;}.g{fill:#f58b1f;}.h{fill:#f99d1c;}.i{fill:#ef3b24;}.j{fill:#f26922;}.k{fill:#7fc042;}.l{fill:#c6d22d;}.m{fill:#e9e015;}.n{filter:url(#c);}.o{filter:url(#a);}</style><filter id="a" x="0" y="0" width="1048.438" height="929.747" filterUnits="userSpaceOnUse"><feOffset dx="4" dy="8" input="SourceAlpha"/><feGaussianBlur stdDeviation="4" result="b"/><feFlood/><feComposite operator="in" in2="b"/><feComposite in="SourceGraphic"/></filter><filter id="c" x="358" y="308.68" width="341" height="319" filterUnits="userSpaceOnUse"><feOffset dx="6" dy="6" input="SourceAlpha"/><feGaussianBlur stdDeviation="3" result="d"/><feFlood flood-opacity="0.161"/><feComposite operator="in" in2="d"/><feComposite in="SourceGraphic"/></filter></defs><g transform="translate(-13737 9516.68)"><g transform="translate(13745 -9512.68)"><g class="o" transform="matrix(1, 0, 0, 1, -8, -4)"><path class="a" d="M512.219,0c282.891,0,512.219,229.328,512.219,512.219,0,97.314-133.175,117.424-180.483,195.213-53.892,88.618-95.8,150.38-161.372,185.787-42.825,23.125-96.319,0-170.364,0-59.848,0-113.527,24.358-162.374,5.148C257.873,862.2,184.542,794.434,123.8,707.432,65.867,624.462,0,621.132,0,512.219S128.687,354.083,186.81,270.836C279.216,138.488,338.241,0,512.219,0Z" transform="translate(8 4)"/></g><g class="n" transform="matrix(1, 0, 0, 1, -8, -4)"><text class="b" transform="translate(361 547.68)"><tspan x="0" y="0">9.6</tspan></text></g><path class="c" d="M49.545,3.587,36.391,30.258,6.961,34.549a6.449,6.449,0,0,0-3.565,11L24.688,66.3l-5.036,29.31A6.442,6.442,0,0,0,29,102.394L55.327,88.555l26.328,13.839A6.447,6.447,0,0,0,91,95.605L85.966,66.3l21.292-20.748a6.449,6.449,0,0,0-3.565-11l-29.43-4.291L61.108,3.587a6.452,6.452,0,0,0-11.563,0Z" transform="translate(200.338 873.616)"/><path class="c" d="M49.545,3.587,36.391,30.258,6.961,34.549a6.449,6.449,0,0,0-3.565,11L24.688,66.3l-5.036,29.31A6.442,6.442,0,0,0,29,102.394L55.327,88.555l26.328,13.839A6.447,6.447,0,0,0,91,95.605L85.966,66.3l21.292-20.748a6.449,6.449,0,0,0-3.565-11l-29.43-4.291L61.108,3.587a6.452,6.452,0,0,0-11.563,0Z" transform="translate(333.434 873.616)"/><path class="c" d="M49.545,3.587,36.391,30.258,6.961,34.549a6.449,6.449,0,0,0-3.565,11L24.688,66.3l-5.036,29.31A6.442,6.442,0,0,0,29,102.394L55.327,88.555l26.328,13.839A6.447,6.447,0,0,0,91,95.605L85.966,66.3l21.292-20.748a6.449,6.449,0,0,0-3.565-11l-29.43-4.291L61.108,3.587a6.452,6.452,0,0,0-11.563,0Z" transform="translate(462.497 871.6)"/><path class="c" d="M49.545,3.587,36.391,30.258,6.961,34.549a6.449,6.449,0,0,0-3.565,11L24.688,66.3l-5.036,29.31A6.442,6.442,0,0,0,29,102.394L55.327,88.555l26.328,13.839A6.447,6.447,0,0,0,91,95.605L85.966,66.3l21.292-20.748a6.449,6.449,0,0,0-3.565-11l-29.43-4.291L61.108,3.587a6.452,6.452,0,0,0-11.563,0Z" transform="translate(591.56 873.616)"/><path class="c" d="M49.545,3.587,36.391,30.258,6.961,34.549a6.449,6.449,0,0,0-3.565,11L24.688,66.3l-5.036,29.31A6.442,6.442,0,0,0,29,102.394L55.327,88.555l26.328,13.839A6.447,6.447,0,0,0,91,95.605L85.966,66.3l21.292-20.748a6.449,6.449,0,0,0-3.565-11l-29.43-4.291L61.108,3.587a6.452,6.452,0,0,0-11.563,0Z" transform="translate(722.639 873.616)"/><g transform="translate(371.056 48.398)"><text class="d" transform="matrix(0.901, -0.433, 0.433, 0.901, 25.137, 92.544)"><tspan x="0" y="0">B</tspan></text><text class="d" transform="matrix(0.942, -0.337, 0.337, 0.942, 54.431, 78.72)"><tspan x="0" y="0">E</tspan></text><text class="d" transform="matrix(0.971, -0.238, 0.238, 0.971, 77.512, 70.284)"><tspan x="0" y="0">D</tspan></text><text class="d" transform="matrix(0.991, -0.131, 0.131, 0.991, 108.906, 62.695)"><tspan x="0" y="0">A</tspan></text><text class="e" transform="matrix(1, -0.027, 0.027, 1, 138.427, 56.784)"><tspan x="0" y="0">N</tspan></text><text class="e" transform="matrix(0.997, 0.077, -0.077, 0.997, 170.449, 55.998)"><tspan x="0" y="0">K</tspan></text><text class="d" transform="matrix(0.986, 0.168, -0.168, 0.986, 201.81, 60.556)"><tspan x="0" y="0">T</tspan></text><text class="d" transform="matrix(0.974, 0.225, -0.225, 0.974, 228.969, 65.454)"><tspan x="0" y="0"> </tspan></text><text class="d" transform="matrix(0.958, 0.285, -0.285, 0.958, 239.967, 67.711)"><tspan x="0" y="0">V</tspan></text><text class="d" transform="matrix(0.929, 0.37, -0.37, 0.929, 269.594, 76.552)"><tspan x="0" y="0">O</tspan></text><text class="d" transform="matrix(0.893, 0.451, -0.451, 0.893, 299.526, 88.528)"><tspan x="0" y="0">O</tspan></text><text class="e" transform="matrix(0.851, 0.525, -0.525, 0.851, 329.327, 101.405)"><tspan x="0" y="0">R</tspan></text><text class="d" transform="matrix(0.82, 0.572, -0.572, 0.82, 355.457, 120.268)"><tspan x="0" y="0"> </tspan></text><text class="d" transform="matrix(0.786, 0.618, -0.618, 0.786, 364.862, 126.501)"><tspan x="0" y="0">D</tspan></text><text class="d" transform="matrix(0.739, 0.673, -0.673, 0.739, 390.493, 146.877)"><tspan x="0" y="0">E</tspan></text><text class="d" transform="matrix(0.708, 0.706, -0.706, 0.708, 408.959, 163.943)"><tspan x="0" y="0"> </tspan></text><text class="d" transform="matrix(0.669, 0.744, -0.744, 0.669, 417.184, 171.777)"><tspan x="0" y="0">B</tspan></text><text class="d" transform="matrix(0.615, 0.788, -0.788, 0.615, 438.935, 196.219)"><tspan x="0" y="0">E</tspan></text><text class="d" transform="matrix(0.567, 0.824, -0.824, 0.567, 454.202, 215.845)"><tspan x="0" y="0">O</tspan></text><text class="d" transform="matrix(0.495, 0.869, -0.869, 0.495, 472.461, 242.662)"><tspan x="0" y="0">O</tspan></text><text class="e" transform="matrix(0.426, 0.905, -0.905, 0.426, 490.233, 269.921)"><tspan x="0" y="0">R</tspan></text><text class="d" transform="matrix(0.353, 0.936, -0.936, 0.353, 501.988, 299.621)"><tspan x="0" y="0">D</tspan></text><text class="d" transform="matrix(0.284, 0.959, -0.959, 0.284, 513.38, 330.338)"><tspan x="0" y="0">E</tspan></text><text class="d" transform="matrix(0.225, 0.974, -0.974, 0.225, 520.422, 354.312)"><tspan x="0" y="0">L</tspan></text><text class="d" transform="matrix(0.173, 0.985, -0.985, 0.173, 525.523, 376.84)"><tspan x="0" y="0">I</tspan></text><text class="e" transform="matrix(0.108, 0.994, -0.994, 0.108, 530.764, 393.929)"><tspan x="0" y="0">N</tspan></text><text class="d" transform="matrix(0.021, 1, -1, 0.021, 532.207, 425.909)"><tspan x="0" y="0">G</tspan></text><text class="d" transform="matrix(-0.06, 0.998, -0.998, -0.06, 532.699, 458.503)"><tspan x="0" y="0">E</tspan></text><text class="e" transform="matrix(-0.141, 0.99, -0.99, -0.141, 533.323, 483.528)"><tspan x="0" y="0">N</tspan></text><text class="d" transform="matrix(-0.213, 0.977, -0.977, -0.213, 526.502, 514.955)"><tspan x="0" y="0">!</tspan></text></g><g transform="translate(180.231 141.475)"><path class="f" d="M230.512,110.309,176.835,7.9A334.834,334.834,0,0,0,3.8,242.381l116.534,21.188A210.912,210.912,0,0,1,230.512,110.309Z" transform="translate(11.738 29.559)"/><path class="g" d="M122.459,94.876a163.592,163.592,0,0,1,2.825-32.488L8.75,41.2C5.219,59.563,3.806,78.632,3.1,97.7a360.307,360.307,0,0,0,8.475,78.4l117.947-26.838A201.68,201.68,0,0,1,122.459,94.876Z" transform="translate(7.494 231.446)"/><path class="h" d="M122.147,56.4,4.2,83.238a342.876,342.876,0,0,0,41.67,101L150.4,119.258C137.684,100.189,128.5,79,122.147,56.4Z" transform="translate(14.163 323.598)"/><path class="i" d="M166.16,65.3,61.633,130.277a361.789,361.789,0,0,0,55.089,67.8C59.514,215.735,1.6,224.21,1.6,224.21c2.119,2.119,67.1,46.614,169.5,67.8l78.4-152.554A233.756,233.756,0,0,1,166.16,65.3Z" transform="translate(-1.6 377.556)"/><path class="j" d="M195.91,96.788A208.915,208.915,0,0,1,104.1,75.6L25.7,228.86c49.439,10.594,108.059,14.832,173.035,7.063V96.788Z" transform="translate(144.51 440.001)"/><path class="k" d="M50.1,104.063V243.2c30.369-3.531,61.445-10.594,93.933-20.482h0a320.472,320.472,0,0,0,80.514-36.726L156.04,74.4A203.779,203.779,0,0,1,50.1,104.063Z" transform="translate(292.439 432.726)"/><path class="l" d="M166.9,103.97a210.644,210.644,0,0,1-101.7,180.1l68.508,111.59A335.234,335.234,0,0,0,248.123,274.887h0a338.336,338.336,0,0,0,43.082-161.029A366.812,366.812,0,0,0,284.143,39.7L163.371,65.832A232.163,232.163,0,0,1,166.9,103.97Z" transform="translate(383.986 222.352)"/><path class="m" d="M186.5,2.623A331.031,331.031,0,0,0,28.3,40.055L81.976,142.464c28.957-15.538,62.858-24.013,98.171-24.013,103.115,0,189.279,74.158,206.936,172.329l120.772-26.132C476.073,116.332,344.708,4.742,186.5,2.623Z" transform="translate(160.273 -2.596)"/></g></g></g></svg>