<?xml version="1.0" encoding="UTF-8" standalone="no"?>
<svg xmlns="http://www.w3.org/2000/svg" viewBox="0 0 363.74 129.73">
 <defs>
  <style>.cls-1{fill:#f45334;}.cls-2{fill:#fff;}.cls-3{fill:#354044;}</style>
 </defs>
 <title>Asset 2</title>
 <g id="Layer_2" data-name="Layer 2">
  <g id="Ebene_1" data-name="Ebene 1">
   <path class="cls-1" d="m363.74 73a56.69 56.69 0 1 1 -56.74 -56.7 56.71 56.71 0 0 1 56.74 56.7z"/>
   <path class="cls-2" d="m313.36 97.23a17.64 17.64 0 0 0 -5.49 -1.16 32.72 32.72 0 0 0 -8.63 0.83c-2.89 0.62-5.79 1.15-8.69 1.7a84.94 84.94 0 0 1 -8.37 1.62c-4.86 0.42-3.71-0.11-0.87-5.38s6.55-11.82 9.92-18.18c4.49-8.44 7.57-17.39 3.13-26.8-6.14-13-24.25-3.58-30.48 4.34-2.36 3 6.7 4.07 8.78 2.07 4.51-6 12.25-10.05 13.29-0.77 0.42 3.78-0.8 7.89-2.33 11.4-3.84 8.75-9 16.39-13.83 24.41-3.17 5.24-5.07 11.27 1.58 13.5a18.7 18.7 0 0 0 6.49 1 46 46 0 0 0 7.61 -1.21c3.79-0.75 7.58-1.53 11.39-2.18 2-0.33 3.92-0.75 5.89-0.91a35.35 35.35 0 0 1 7.58 0.15c1 0.14 2 0.44 3 0.5s3-1.36 3.1-2.44c0.12-1.32-2.22-2.15-3.07-2.49z"/>
   <path class="cls-2" d="m353.24 68.24a24.24 24.24 0 0 0 -5.75 0.28q-1 0.14-1.94 0.33c-1.23 0.23-2.45 0.49-3.67 0.76 1-5.42 2.35-11.27 3.43-16.13 0.83-3.73 0.4-8.48-1-10.91-0.42-0.71-2.6-1.33-3.75-0.95a7.15 7.15 0 0 0 -3 2.86 34.6 34.6 0 0 0 -2.38 5c-2.43 7.43-3.64 14.14-5.17 21.81-0.07 0.34-0.12 0.68-0.19 1l-2.18 0.48a76 76 0 0 1 -7.57 1.7c-1.05 0.11-2.52 0.57-3.11-0.48-0.43-0.77 0.12-2.39 0.31-3.19a56.06 56.06 0 0 1 2.22 -7.17c3.94-10.28 5.14-12.08 6.05-18.42a7.82 7.82 0 0 0 -0.41 -4.27 2.18 2.18 0 0 0 -2.26 -1.4 8 8 0 0 0 -3.61 0.58 5.24 5.24 0 0 0 -1 0.63 13.73 13.73 0 0 0 -1.89 2c-0.19 0.25-0.36 0.51-0.52 0.77a47 47 0 0 0 -3.38 6c-0.94 2.16-1.84 4.35-2.67 6.56a115.11 115.11 0 0 0 -4.09 13.28q-0.26 1.08-0.51 2.17c-1.15 5.09-1.27 9.92 6.92 9.16a93.81 93.81 0 0 0 16.88 -3.45c-0.21 1.29-0.41 2.58-0.58 3.88-0.22 1.73-1.27 9.68-1.41 11.41a52 52 0 0 0 -0.27 6.57 22 22 0 0 0 0.13 2.27 3.61 3.61 0 0 0 0.6 1.76 3.5 3.5 0 0 0 3.12 0.68 5.74 5.74 0 0 0 3.3 -1.42 10.51 10.51 0 0 0 2.07 -3.45 28.83 28.83 0 0 0 1.94 -6.12c0.79-3.75 2.43-13.72 3-17.5 0.07-0.45 0.16-0.93 0.23-1.39 1-0.24 2-0.47 3-0.68a42.76 42.76 0 0 1 6.62 -0.93 40.1 40.1 0 0 1 4 -0.06c0.74 0 3.84 0.56 3.68-1-0.26-2.26-3.37-2.86-5.19-3.02z"/>
   <path class="cls-3" d="m240.58 91.78l-0.24 0.2c-3.94 3.53-16.08 12-20 3.73-1.6-3.41-1.44-7.94-1.42-11.62 0-3.08 0.27-6.38 0.51-9.69 5.59-0.08 13.6-5.16 13.67-17.71 0-7.87-7.59-8.37-9.64-8.38-16.07-0.09-19.52 24.06-19.59 35.12v1.1c-4.09 7.52-8.57 14.16-12.77 14.34-2.08 0.09-3-3.33-3-7.39 0-7.19 2.41-15.2 3.52-22.77s0-12.72-5.93-13c-14-0.73-21.87 18.46-22.58 19.61 0.25-10.09-2.74-16.09-12-16.33-6.5-0.17-13.06 9.87-13.06 9.87s0-0.81 0-2.08c0.11-4.29-0.43-14.11-8.41-14.15h-0.12c-2.08 0-5.76 2-9.16 3.9-5 2.83-15.56 5.8-16.19 4.87a19.28 19.28 0 0 0 -14.41 -8.45c-8.49-1-15.31 2.36-15.76 7a5.33 5.33 0 0 0 1.1 3.56 16.6 16.6 0 0 0 -5.1 6.23c-1.83 2.94-3.41 8.44-4.27 11.16a44.05 44.05 0 0 1 -3.78 8.39c-2.24 4.07-5.89 10.33-9.25 12-1.06 0.53-3 1.24-3.89-0.2-1-1.61-0.26-6.31 0.31-8.72 0.75-3.22 2-8.58 2.82-11.82 1-4 1.83-8.89 2.36-12.49 0.7-5.06 0.3-10.65-4.38-13.34-6.44-3.69-14.28-2-19.81 2.59-3.53 2.9-5.69 6.53-8.33 11.07-0.83 1.44-2.43 4.81-2.43 4.81s1.3-9.29 1.65-11.81c2.15-15.75 4-31.2 7.28-46.82 0.72-3.5 1.87-6.42 1.72-10.09-0.07-2-0.55-3.27-1.29-3.92-2.74-2.37-9 3.38-10.88 6.52-4.18 7-6.22 15.35-8 23.23-5.14 23.59-9.75 72.62-9.83 73.59-0.14 2.44 0.23 6.75 4.13 7a12.36 12.36 0 0 0 6.52 -1.18c3.15-1.25 5-4.11 6.52-7.8 1.69-4 3.77-9.49 5.46-14s2.73-7.67 4.74-11.37c1.65-3 4.32-6.6 7.81-7.67 1.28-0.39 4-0.92 3.53 1.26-0.22 0.92-3.16 11.73-3.91 14.76-0.52 2.11-1 4.6-1.41 6.74-2 11.23 5.43 22.34 17.87 18.55 5.9-1.78 10.4-5.78 13.74-10.58 0.48-0.69 1-1.49 1.46-2.34a19.32 19.32 0 0 0 16.75 13.63c7.84 0.39 24.44-5 24.53-34.64 0-2.05-0.34-5.41-0.51-7.13 0 0.23 6.49-0.85 11.31-2.42a23.38 23.38 0 0 0 3.46 -1.45c-2.48 11.6-3 28.48-3.15 34.7-0.21 9.28 1.81 10.84 5 10.92a24.52 24.52 0 0 0 3.47 -0.26c7.35-2.13 7.37-7.35 7.37-7.35 0.48-24.81 13.53-37.42 16.4-37.35 0.91 0 1.14 1.08 1.19 2.7 0.14 5.46-1 11-3.6 20.66-1.38 5.12-2.25 9.15-2.32 11.58-0.21 8.23 4.68 8.83 5.6 8.85h0.11a5.46 5.46 0 0 0 5.65 -4.26c10.28-32.37 19.38-36.64 19.38-36.64-1.81 8.31-3.85 17-4 24.27-0.24 9.57 3.37 18.05 14.36 17.56 6.51-0.29 12.79-7.47 17.67-15.11 3.26 14.1 12.46 15.36 16.34 15.38a23.69 23.69 0 0 0 17.36 -7.76c1.29-1.42 2.59-2.89 3.74-4.43 0.87-1.16 3.13-3.8 3.17-5.34 0.05-3.27-3.37-2.94-5.16-1.59zm-18.94-35a4.31 4.31 0 0 1 3.21 -2.26c0.91 0 1.59 0.69 1.58 2.63-0.05 9.12-5.3 10.12-6.22 10.34 0.49-4.02 0.16-7.9 1.43-10.74zm-127.85 24.57c-0.64 10.81-3 21.69-7.78 21.53-4.1-0.14-6.11-7.76-6.07-15.4 0-9 3.75-20 3.75-20s3 0.7 4.45 0.87 4.61 0.44 4.61 0.44a37 37 0 0 1 1.04 12.56z"/>
  </g>
 </g>
</svg>
