<svg xmlns="http://www.w3.org/2000/svg" width="600pt" height="600pt" version="1.0" viewBox="0 0 600 600">
<g transform="translate(0 600) scale(.1 -.1)">
<path d="m2805 5850c-1048-72-1983-723-2412-1683-402-898-312-1943 238-2762 199-296 479-576 774-774 820-550 1864-640 2762-238 634 283 1157 806 1440 1440 291 649 328 1392 103 2067-141 425-364 787-683 1109-499 504-1133 792-1851 841-156 11-208 11-371 0zm525-85c495-56 983-257 1390-574 111-86 322-291 422-411 173-206 338-484 443-744 135-337 198-666 198-1036 0-563-156-1077-468-1545-51-77-129-183-173-235-100-120-311-325-422-411-416-323-911-524-1430-580-148-15-432-15-580 0-519 56-1014 257-1430 580-111 86-322 291-422 411-173 206-338 484-443 744-135 337-198 666-198 1036 0 563 156 1077 468 1545 117 176 218 296 381 455 267 259 556 447 898 585 291 117 565 176 916 199 89 6 315-4 450-19z" fill="#54a901"/>
<path d="m2676 5510c-43-5-81-12-84-15-5-5 24-390 34-432 5-25 25-28 84-17l32 7-7 93-7 94h23c19 0 38-20 87-88l63-89 57 4c31 3 63 6 70 9 9 2-11 34-57 90-39 48-71 90-71 94s11 12 25 18c32 15 65 68 65 105 0 43-26 91-62 112-38 22-136 28-252 15zm179-96c23-24 15-66-15-81-14-6-46-14-71-18l-47-7-7 51c-4 27-4 55 0 61 11 17 121 12 140-6z" fill="#54a901"/>
<path d="m3156 5499c-9-43-38-430-33-435 3-3 30-8 61-11l56-6v29c1 16 9 119 19 229s18 201 17 202c-1 0-27 4-58 8-54 7-57 6-62-16z" fill="#54a901"/>
<path d="m3470 5486c0-4-25-104-56-222-31-119-52-219-48-224 15-13 328-90 335-82 4 4 12 23 17 44l10 36-112 28c-61 15-114 28-118 30-5 4 3 47 17 91 3 8 35 3 108-17l105-28 11 41c5 23 9 42 8 43s-46 13-101 27c-54 14-100 28-103 31-6 5 18 86 26 86 3 0 46-11 96-25 49-14 97-25 105-25 10 0 20 15 26 40 13 46 24 40-172 89-67 17-129 33-138 37-9 3-16 3-16 0z" fill="#54a901"/>
<path d="m2230 5405c-104-35-155-57-154-66 1-8 32-108 69-222 47-144 72-207 80-203 7 2 31 10 54 17s41 17 41 23-11 46-25 89c-17 56-20 79-12 82 7 3 49 16 95 30 45 14 82 29 82 32s-5 22-11 43l-11 37-92-28c-50-16-94-29-98-29-9 0-38 89-30 93 4 3 50 19 103 36l97 32-12 39c-6 21-14 41-16 43-3 2-75-19-160-48z" fill="#54a901"/>
<path d="m3903 5118-112-203 47-27c26-15 49-28 52-28s37 59 75 130c39 71 73 130 76 130s11-62 18-137c22-249 15-227 83-263 33-18 61-30 62-28 13 15 216 389 216 397 0 6-22 22-48 35l-48 24-73-134c-40-75-75-134-76-132-2 2-11 86-20 188s-18 185-19 186c0 0-27 15-58 32-32 18-59 32-60 32-2 0-53-91-115-202z" fill="#54a901"/>
<path d="m1503 5046c-113-53-193-162-193-263 0-65 16-107 61-158 96-109 269-101 392 18 132 129 112 328-41 406-59 30-151 28-219-3zm155-106c46-28 72-76 72-132 0-39-6-54-31-83-41-46-78-65-127-65-99 0-173 121-128 208 43 82 142 116 214 72z" fill="#54a901"/>
<path d="m4467 4777-168-162 98-96c54-53 118-106 142-119 159-80 331 17 331 188 0 83-33 143-143 257l-92 95-168-163zm236-46c48-51 65-99 53-148-9-34-65-90-100-99-45-11-105 14-159 65l-49 47 98 92c54 51 101 92 104 92 4 0 28-22 53-49z" fill="#54a901"/>
<path d="m2735 4744c-611-94-1130-502-1366-1073-144-348-170-756-73-1129 106-408 379-782 743-1021 95-61 267-151 292-151 28 0 61 94 67 190l5 85-98 19c-182 34-289 80-410 177-182 147-281 329-319 590-39 266-6 546 95 806 42 107 55 127 65 96 3-10 22-52 42-93 50-105 122-173 317-297 363-231 511-376 568-558 44-139 22-410-45-554l-21-46-13 117c-21 188-46 264-132 398-57 90-177 206-269 261-95 56-183 100-143 72 141-101 270-233 331-338 36-62 92-232 113-344 12-59 16-144 16-297 0-118 2-214 4-214 26 0 272 105 281 120 3 5-4 46-15 92-27 114-35 245-20 343 42 277 238 585 470 742 41 28 152 96 245 153 219 132 317 201 384 269 59 60 152 196 190 279 14 28 28 52 32 52s9-12 12-27c2-16 23-118 45-228 70-344 86-474 87-705 0-228-10-299-69-472-118-347-382-555-791-624-113-19-407-30-385-14 8 6 65 38 125 71 302 167 453 305 586 536 72 126 130 288 153 428 5 31-1 23-27-40-93-222-262-469-409-596-160-140-264-205-543-337-277-130-345-165-345-173 0-10 118-36 239-54 127-20 376-19 508 1 615 91 1137 498 1374 1073 90 218 129 422 129 671 0 480-177 909-514 1246-271 271-610 442-989 498-129 20-397 20-522 0zm138-688c55-23 89-69 95-124 8-84-10-116-127-229l-106-103h118 117v-45-45h-185-185v43c0 42 3 47 124 165 68 67 129 135 136 152 44 106-101 167-150 63-15-34-37-40-87-27-29 8-29 27 2 79 43 75 161 108 248 71zm473-5c64-29 97-80 102-156 5-77-8-108-111-267l-77-118h-60c-33 0-60 2-60 5s29 46 65 95 65 91 65 92c0 2-25 3-54 4-123 2-204 118-165 235 14 42 64 97 104 115 44 20 142 17 191-5zm466-13c57-44 80-106 86-230 5-120-10-187-55-247-60-79-191-83-260-9-49 53-67 115-67 233 0 93 3 118 22 160 44 96 90 128 178 123 48-3 69-10 96-30zm-1372 0c118-60 122-209 7-274l-37-20 59-96c94-152 92-138 19-138h-63l-64 115c-62 111-66 115-98 115h-33v-115-115h-50-50v275 275h133c118 0 138-3 177-22z" fill="#54a901"/>
<path d="m3200 3977c-14-7-33-29-44-50-16-34-17-42-4-75 19-52 74-79 129-63 47 14 69 44 69 94 0 49-13 73-50 92-35 18-67 19-100 2z" fill="#54a901"/>
<path d="m3668 3970c-34-26-53-98-51-195 1-96 18-151 55-178 22-17 33-19 55-11 43 14 66 73 71 175 8 173-52 271-130 209z" fill="#54a901"/>
<path d="m2230 3895v-75h48c59 0 116 15 133 36 20 25 15 75-10 96-18 14-40 18-97 18h-74v-75z" fill="#54a901"/>
<path d="m1093 4639c-80-39-152-145-168-246-10-61 16-141 60-186 55-56 90-71 170-72 83 0 130 20 192 81 55 56 84 115 91 186l5 59-29-7c-73-18-79-21-80-40 0-10-1-29-2-41-2-27-55-89-93-109-15-7-40-14-54-14-40 0-104 37-125 73-24 38-26 106-5 146 17 34 70 81 91 81 15 0 20 63 8 94-8 20-11 20-61-5z" fill="#54a901"/>
<path d="m4883 4301-191-118 81-136c45-75 84-136 87-137 3 0 22 10 43 23l37 23-51 83c-43 69-49 85-38 95 8 7 61 41 119 76s122 74 143 87l38 24-28 49c-15 28-32 50-38 49-5 0-96-54-202-118z" fill="#54a901"/>
<path d="m667 3973c-36-87-65-159-63-160 1-1 97-42 214-91l211-89 42 101c24 56 55 130 70 166l27 64-40 18c-22 10-41 18-43 18-1 0-22-46-45-102-23-57-45-107-50-111-8-9-90 21-90 33 0 4 18 50 39 101l39 94-36 16c-20 9-40 14-44 10-3-3-23-46-43-96-20-49-38-91-39-93-3-2-77 27-84 32-1 2 18 50 42 109l45 106-27 9c-15 6-34 13-43 16-13 6-29-23-82-151z" fill="#54a901"/>
<path d="m5182 3983-92-138-86-30c-47-16-88-33-90-36-5-9 26-98 37-105 5-3 48 9 95 27l86 32 159-45c87-25 159-42 159-39 0 4-10 34-23 66l-23 60-97 20c-53 11-97 23-97 28 0 4 25 41 55 81s55 79 55 87c0 12-38 120-44 127-2 1-44-60-94-135z" fill="#54a901"/>
<path d="m514 3138c3-13 6-29 6-35 0-10 37-13 152-13h152l-304-214v-48-48h143c78 0 166 3 195 6 51 7 52 7 52 40v34l-145-7c-85-3-145-2-145 3s63 54 140 108l140 99v49 48h-196-196l6-22z" fill="#54a901"/>
<path d="m5086 3128c-3-13-6-89-6-170v-148h24c22 0 24 5 30 68l7 67 164-4 165-3v36 36h-112c-62 0-137 3-165 6l-53 7v63c0 61-1 64-24 64-16 0-26-7-30-22z" fill="#54a901"/>
<path d="m5075 2738c-4-18-3-33 4-37 6-4 66-17 133-30 68-13 127-27 131-31 4-3-65-38-154-75-89-38-163-74-165-79-2-6-5-29-7-50l-2-40 185-37c102-20 186-36 186-36 1 1 5 16 8 34 8 37 17 33-144 64-139 26-156 33-117 48 87 33 294 125 304 134 6 7 13 30 15 51l3 40-155 31c-85 17-169 34-187 38-29 6-32 4-38-25z" fill="#54a901"/>
<path d="m542 2622c9-38 13-41 56-49l47-8 22-85c11-47 22-90 22-96 1-6-17-24-39-39-35-24-38-30-33-59 3-17 9-34 13-39 3-4 81 52 172 124 165 129 166 131 157 161-4 17-10 32-11 33-2 1-86 21-188 44s-195 45-207 47c-20 6-21 4-11-34zm259-87c40-9 74-17 76-19 4-4-125-96-136-96-5 0-11 15-14 33-3 17-9 47-13 65-8 37-10 37 87 17z" fill="#54a901"/>
<path d="m968 2363c-23-6-23-21 2-78 11-26 20-50 20-53 0-4-68-34-150-67-145-58-150-61-145-85 4-14 10-29 15-34 6-5 65 14 147 47 76 31 144 57 151 59 8 2 23-20 36-52 19-47 26-55 46-52 13 1 26 4 28 7 5 5-121 315-128 314-3-1-13-3-22-6z" fill="#54a901"/>
<path d="m5059 2203-137-4-12-29c-15-35-22-23 145-218l120-140 18 34 18 35-31 36c-37 41-36 50 13 151l32 67 48 3c40 3 49 7 62 32 8 16 15 31 15 35 0 3-35 4-77 3-43-1-139-4-214-5zm69-69 30-6-26-59c-14-32-29-59-33-59-9 0-109 112-109 123 0 8 95 9 138 1z" fill="#54a901"/>
<path d="m1029 1947c-138-88-163-119-157-195 6-70 47-129 111-161 65-32 92-25 228 60 63 39 115 73 117 74 4 3-8 26-26 53-7 10-38-6-127-63-65-41-126-75-137-75-82 0-138 122-80 173 9 8 62 43 117 77 55 35 101 64 103 65 4 3-27 65-32 65-1 0-54-33-117-73z" fill="#54a901"/>
<path d="m4777 1861c-26-17-153-179-145-186 1-1 74-52 160-113l157-111 20 31 19 32-64 44c-35 25-64 49-64 55s7 18 16 28c15 16 28 18 111 12l95-6 24 29c13 16 23 32 24 37 0 4-44 7-98 7h-98v56c1 49-2 59-27 80-34 29-90 32-130 5zm94-73c13-24-1-68-37-115l-25-33-45 30c-24 17-44 34-44 38 1 14 62 87 82 98 27 14 56 7 69-18z" fill="#54a901"/>
<path d="m1246 1528-138-133 22-28 22-27 61 55c33 30 63 55 67 55s15-8 24-19c16-18 16-24-9-111l-26-92 30-33 30-34 22 100c19 83 25 99 38 93 9-4 35-9 58-12 37-3 47 0 73 26 34 34 39 79 15 125-14 28-135 167-145 167-3 0-68-60-144-132zm195 0c43-53 52-74 39-98-23-43-77-31-134 29l-30 31 39 40c22 22 42 40 45 40s22-19 41-42z" fill="#54a901"/>
<path d="m4467 1522-97-97 275-275 104 104c90 90 103 107 91 120-7 9-17 16-24 16-6 0-45-34-86-75l-76-75-78 80 67 68c37 37 67 72 67 79 0 6-7 16-16 23-13 12-26 3-87-58l-73-72-32 33c-18 18-32 37-32 43 0 5 31 41 70 79 65 65 69 70 53 87-9 10-19 18-22 18-4 0-50-44-104-98z" fill="#54a901"/>
<path d="m4240 1316c-94-33-170-114-185-197-14-75 36-168 109-206 49-26 134-21 198 10 54 27 148 109 148 130 0 16-102 168-110 165-17-7-130-84-130-88 1-3 7-13 15-23 13-18 15-18 51 7l38 26 29-46 30-45-23-24c-32-34-99-65-141-65-43 0-93 30-120 72-30 49-22 128 17 169 37 39 74 58 118 61 26 2 36 8 36 20 0 9 3 23 6 32 8 20-34 21-86 2z" fill="#54a901"/>
<path d="m1590 1200c-96-54-176-102-177-107-1-4 9-17 24-27 26-19 27-19 67 2 23 12 45 22 49 22 5 0 42-23 83-52 80-56 79-54 58-129-3-10 9-26 31-43 19-15 35-23 35-19s16 100 35 213l35 205-23 17c-12 10-26 17-32 17-5-1-89-45-185-99zm167 6c-3-8-11-43-18-77-6-35-15-67-18-71-7-8-111 59-111 71 1 7 131 89 144 90 4 1 6-5 3-13z" fill="#54a901"/>
<path d="m1990 1088c-15-35-51-112-79-172s-48-113-44-117c5-4 56-30 116-57 100-47 108-49 117-32 6 10 10 23 10 28s-36 25-80 45-80 38-80 41c0 2 29 67 65 144 36 78 65 145 65 150 0 8-42 32-56 32-3 0-18-28-34-62z" fill="#54a901"/>
<path d="m3883 1102-32-17 79-169c44-93 82-171 85-174 4-4 65 17 65 23 0 2-161 349-164 352 0 0-15-6-33-15z" fill="#54a901"/>
<path d="m3675 1023c-89-20-186-56-182-67 3-7 28-86 57-177 29-90 55-167 59-172 4-4 21-2 38 4l31 10-24 71c-13 40-24 75-24 79s12 12 28 17c25 8 33 4 99-55l73-65 42 14 41 14-154 126 31 34c52 60 33 144-38 163-39 11-44 12-77 4zm59-72c29-32 17-63-34-88-84-40-86-40-105 17-9 28-15 53-13 56 10 9 85 33 109 33 14 1 34-8 43-18z" fill="#54a901"/>
<path d="m2435 968c-2-7-18-85-35-173s-33-167-36-176c-3-12 4-18 28-23 39-8 41-4 58 86l14 70 30-6c16-4 30-7 31-9 1-1 16-43 34-93 32-90 33-92 69-98 20-3 38-4 40-1 2 2-10 38-27 80-18 42-34 82-37 90s7 15 30 19c45 9 86 56 86 100 0 65-45 98-175 127-96 22-104 23-110 7zm141-69c51-13 80-46 69-79-10-32-49-43-113-29l-54 11 7 46c10 70 11 71 91 51z" fill="#54a901"/>
<path d="m3283 932c-95-13-113-18-113-33 0-24 49-362 54-366 1-2 17 0 34 3l32 6-7 57c-14 113-20 104 85 120 90 13 102 20 83 50-7 11-23 11-95 1-48-7-89-10-92-7-2 2-7 27-11 55l-6 51 34 5c19 3 63 10 98 16 35 5 65 11 67 13 2 1 1 13-3 25-6 25-3 25-160 4z" fill="#54a901"/>
<path d="m2807 728c-3-106-5-193-4-194s68-4 150-6l147-3v28 27h-102c-57 0-109 4-115 8-9 6-11 24-6 60l6 52h98c99 0 99 0 99 25s-1 25-84 25c-113 0-116 2-116 61v49h105c104 0 105 0 105 23s-3 24-107 30c-58 4-120 7-138 7h-32l-6-192z" fill="#54a901"/>
</g>
</svg>